<svg width="1251" height="808" viewBox="0 0 1251 808" fill="none" xmlns="http://www.w3.org/2000/svg">
<rect width="30" height="40" fill="#3726F7" fill-opacity="0.02"/>
<rect x="37" width="30" height="40" fill="#3726F7" fill-opacity="0.07"/>
<rect x="74" width="30" height="40" fill="#3726F7" fill-opacity="0.02"/>
<rect x="111" width="30" height="40" fill="#3726F7" fill-opacity="0.07"/>
<rect x="148" width="30" height="40" fill="#3726F7" fill-opacity="0.07"/>
<rect x="185" width="30" height="40" fill="#3726F7" fill-opacity="0.07"/>
<rect x="222" width="30" height="40" fill="#3726F7" fill-opacity="0.07"/>
<rect x="259" width="30" height="40" fill="#3726F7" fill-opacity="0.07"/>
<rect x="296" width="30" height="40" fill="#3726F7" fill-opacity="0.02"/>
<rect x="333" width="30" height="40" fill="#3726F7" fill-opacity="0.07"/>
<rect x="370" width="30" height="40" fill="#3726F7" fill-opacity="0.07"/>
<rect x="407" width="30" height="40" fill="#3726F7" fill-opacity="0.07"/>
<rect x="444" width="30" height="40" fill="#3726F7" fill-opacity="0.07"/>
<rect x="481" width="30" height="40" fill="#3726F7" fill-opacity="0.07"/>
<rect x="518" width="30" height="40" fill="#3726F7" fill-opacity="0.02"/>
<rect x="555" width="30" height="40" fill="#3726F7" fill-opacity="0.07"/>
<rect x="592" width="30" height="40" fill="#3726F7" fill-opacity="0.07"/>
<rect x="629" width="30" height="40" fill="#3726F7" fill-opacity="0.07"/>
<rect x="666" width="30" height="40" fill="#3726F7" fill-opacity="0.07"/>
<rect x="703" width="30" height="40" fill="#3726F7" fill-opacity="0.07"/>
<rect x="740" width="30" height="40" fill="#3726F7" fill-opacity="0.07"/>
<rect x="777" width="30" height="40" fill="#3726F7" fill-opacity="0.07"/>
<rect x="814" width="30" height="40" fill="#3726F7" fill-opacity="0.07"/>
<rect x="851" width="30" height="40" fill="#3726F7" fill-opacity="0.02"/>
<rect x="888" width="30" height="40" fill="#3726F7" fill-opacity="0.07"/>
<rect x="925" width="30" height="40" fill="#3726F7" fill-opacity="0.02"/>
<rect x="962" width="30" height="40" fill="#3726F7" fill-opacity="0.07"/>
<rect x="999" width="30" height="40" fill="#3726F7" fill-opacity="0.07"/>
<rect x="1036" width="30" height="40" fill="#3726F7" fill-opacity="0.07"/>
<rect x="1073" width="30" height="40" fill="#3726F7" fill-opacity="0.02"/>
<rect x="1110" width="30" height="40" fill="#3726F7" fill-opacity="0.07"/>
<rect x="1147" width="30" height="40" fill="#3726F7" fill-opacity="0.07"/>
<rect x="1184" width="30" height="40" fill="#3726F7" fill-opacity="0.07"/>
<rect x="1221" width="30" height="40" fill="#3726F7" fill-opacity="0.02"/>
<rect y="48" width="30" height="40" fill="#3726F7" fill-opacity="0.07"/>
<rect x="37" y="48" width="30" height="40" fill="#3726F7" fill-opacity="0.07"/>
<rect x="74" y="48" width="30" height="40" fill="#3726F7" fill-opacity="0.07"/>
<rect x="111" y="48" width="30" height="40" fill="#3726F7" fill-opacity="0.07"/>
<rect x="148" y="48" width="30" height="40" fill="#3726F7" fill-opacity="0.03"/>
<rect x="185" y="48" width="30" height="40" fill="#3726F7" fill-opacity="0.07"/>
<rect x="222" y="48" width="30" height="40" fill="#3726F7" fill-opacity="0.07"/>
<rect x="259" y="48" width="30" height="40" fill="#3726F7" fill-opacity="0.07"/>
<rect x="296" y="48" width="30" height="40" fill="#3726F7" fill-opacity="0.07"/>
<rect x="333" y="48" width="30" height="40" fill="#3726F7" fill-opacity="0.03"/>
<rect x="370" y="48" width="30" height="40" fill="#3726F7" fill-opacity="0.07"/>
<rect x="407" y="48" width="30" height="40" fill="#3726F7" fill-opacity="0.07"/>
<rect x="444" y="48" width="30" height="40" fill="#3726F7" fill-opacity="0.07"/>
<rect x="481" y="48" width="30" height="40" fill="#3726F7" fill-opacity="0.07"/>
<rect x="518" y="48" width="30" height="40" fill="#3726F7" fill-opacity="0.07"/>
<rect x="555" y="48" width="30" height="40" fill="#3726F7" fill-opacity="0.07"/>
<rect x="592" y="48" width="30" height="40" fill="#3726F7" fill-opacity="0.07"/>
<rect x="629" y="48" width="30" height="40" fill="#3726F7" fill-opacity="0.07"/>
<rect x="666" y="48" width="30" height="40" fill="#3726F7" fill-opacity="0.03"/>
<rect x="703" y="48" width="30" height="40" fill="#3726F7" fill-opacity="0.07"/>
<rect x="740" y="48" width="30" height="40" fill="#3726F7" fill-opacity="0.07"/>
<rect x="777" y="48" width="30" height="40" fill="#3726F7" fill-opacity="0.07"/>
<rect x="814" y="48" width="30" height="40" fill="#3726F7" fill-opacity="0.07"/>
<rect x="851" y="48" width="30" height="40" fill="#3726F7" fill-opacity="0.07"/>
<rect x="888" y="48" width="30" height="40" fill="#3726F7" fill-opacity="0.03"/>
<rect x="925" y="48" width="30" height="40" fill="#3726F7" fill-opacity="0.07"/>
<rect x="962" y="48" width="30" height="40" fill="#3726F7" fill-opacity="0.07"/>
<rect x="999" y="48" width="30" height="40" fill="#3726F7" fill-opacity="0.07"/>
<rect x="1036" y="48" width="30" height="40" fill="#3726F7" fill-opacity="0.07"/>
<rect x="1073" y="48" width="30" height="40" fill="#3726F7" fill-opacity="0.07"/>
<rect x="1110" y="48" width="30" height="40" fill="#3726F7" fill-opacity="0.07"/>
<rect x="1147" y="48" width="30" height="40" fill="#3726F7" fill-opacity="0.03"/>
<rect x="1184" y="48" width="30" height="40" fill="#3726F7" fill-opacity="0.07"/>
<rect x="1221" y="48" width="30" height="40" fill="#3726F7" fill-opacity="0.07"/>
<rect y="96" width="30" height="40" fill="#3726F7" fill-opacity="0.07"/>
<rect x="37" y="96" width="30" height="40" fill="#3726F7" fill-opacity="0.03"/>
<rect x="74" y="96" width="30" height="40" fill="#3726F7" fill-opacity="0.07"/>
<rect x="111" y="96" width="30" height="40" fill="#3726F7" fill-opacity="0.07"/>
<rect x="148" y="96" width="30" height="40" fill="#3726F7" fill-opacity="0.07"/>
<rect x="185" y="96" width="30" height="40" fill="#3726F7" fill-opacity="0.07"/>
<rect x="222" y="96" width="30" height="40" fill="#3726F7" fill-opacity="0.07"/>
<rect x="259" y="96" width="30" height="40" fill="#3726F7" fill-opacity="0.07"/>
<rect x="296" y="96" width="30" height="40" fill="#3726F7" fill-opacity="0.07"/>
<rect x="333" y="96" width="30" height="40" fill="#3726F7" fill-opacity="0.07"/>
<rect x="370" y="96" width="30" height="40" fill="#3726F7" fill-opacity="0.07"/>
<rect x="407" y="96" width="30" height="40" fill="#3726F7" fill-opacity="0.07"/>
<rect x="444" y="96" width="30" height="40" fill="#3726F7" fill-opacity="0.07"/>
<rect x="481" y="96" width="30" height="40" fill="#3726F7" fill-opacity="0.07"/>
<rect x="518" y="96" width="30" height="40" fill="#3726F7" fill-opacity="0.07"/>
<rect x="555" y="96" width="30" height="40" fill="#3726F7" fill-opacity="0.03"/>
<rect x="592" y="96" width="30" height="40" fill="#3726F7" fill-opacity="0.07"/>
<rect x="629" y="96" width="30" height="40" fill="#3726F7" fill-opacity="0.07"/>
<rect x="666" y="96" width="30" height="40" fill="#3726F7" fill-opacity="0.07"/>
<rect x="703" y="96" width="30" height="40" fill="#3726F7" fill-opacity="0.07"/>
<rect x="740" y="96" width="30" height="40" fill="#3726F7" fill-opacity="0.07"/>
<rect x="777" y="96" width="30" height="40" fill="#3726F7" fill-opacity="0.07"/>
<rect x="814" y="96" width="30" height="40" fill="#3726F7" fill-opacity="0.07"/>
<rect x="851" y="96" width="30" height="40" fill="#3726F7" fill-opacity="0.07"/>
<rect x="888" y="96" width="30" height="40" fill="#3726F7" fill-opacity="0.07"/>
<rect x="925" y="96" width="30" height="40" fill="#3726F7" fill-opacity="0.07"/>
<rect x="962" y="96" width="30" height="40" fill="#3726F7" fill-opacity="0.07"/>
<rect x="999" y="96" width="30" height="40" fill="#3726F7" fill-opacity="0.07"/>
<rect x="1036" y="96" width="30" height="40" fill="#3726F7" fill-opacity="0.03"/>
<rect x="1073" y="96" width="30" height="40" fill="#3726F7" fill-opacity="0.07"/>
<rect x="1110" y="96" width="30" height="40" fill="#3726F7" fill-opacity="0.07"/>
<rect x="1147" y="96" width="30" height="40" fill="#3726F7" fill-opacity="0.07"/>
<rect x="1184" y="96" width="30" height="40" fill="#3726F7" fill-opacity="0.07"/>
<rect x="1221" y="96" width="30" height="40" fill="#3726F7" fill-opacity="0.07"/>
<rect y="144" width="30" height="40" fill="#3726F7" fill-opacity="0.07"/>
<rect x="37" y="144" width="30" height="40" fill="#3726F7" fill-opacity="0.07"/>
<rect x="74" y="144" width="30" height="40" fill="#3726F7" fill-opacity="0.07"/>
<rect x="111" y="144" width="30" height="40" fill="#3726F7" fill-opacity="0.07"/>
<rect x="148" y="144" width="30" height="40" fill="#3726F7" fill-opacity="0.07"/>
<rect x="185" y="144" width="30" height="40" fill="#3726F7" fill-opacity="0.07"/>
<rect x="222" y="144" width="30" height="40" fill="#3726F7" fill-opacity="0.07"/>
<rect x="259" y="144" width="30" height="40" fill="#3726F7" fill-opacity="0.07"/>
<rect x="296" y="144" width="30" height="40" fill="#3726F7" fill-opacity="0.07"/>
<rect x="333" y="144" width="30" height="40" fill="#3726F7" fill-opacity="0.07"/>
<rect x="370" y="144" width="30" height="40" fill="#3726F7" fill-opacity="0.07"/>
<rect x="407" y="144" width="30" height="40" fill="#3726F7" fill-opacity="0.07"/>
<rect x="444" y="144" width="30" height="40" fill="#3726F7" fill-opacity="0.07"/>
<rect x="481" y="144" width="30" height="40" fill="#3726F7" fill-opacity="0.07"/>
<rect x="518" y="144" width="30" height="40" fill="#3726F7" fill-opacity="0.07"/>
<rect x="555" y="144" width="30" height="40" fill="#3726F7" fill-opacity="0.07"/>
<rect x="592" y="144" width="30" height="40" fill="#3726F7" fill-opacity="0.07"/>
<rect x="629" y="144" width="30" height="40" fill="#3726F7" fill-opacity="0.07"/>
<rect x="666" y="144" width="30" height="40" fill="#3726F7" fill-opacity="0.07"/>
<rect x="703" y="144" width="30" height="40" fill="#3726F7" fill-opacity="0.07"/>
<rect x="740" y="144" width="30" height="40" fill="#3726F7" fill-opacity="0.07"/>
<rect x="777" y="144" width="30" height="40" fill="#3726F7" fill-opacity="0.07"/>
<rect x="814" y="144" width="30" height="40" fill="#3726F7" fill-opacity="0.07"/>
<rect x="851" y="144" width="30" height="40" fill="#3726F7" fill-opacity="0.07"/>
<rect x="888" y="144" width="30" height="40" fill="#3726F7" fill-opacity="0.07"/>
<rect x="925" y="144" width="30" height="40" fill="#3726F7" fill-opacity="0.07"/>
<rect x="962" y="144" width="30" height="40" fill="#3726F7" fill-opacity="0.07"/>
<rect x="999" y="144" width="30" height="40" fill="#3726F7" fill-opacity="0.07"/>
<rect x="1036" y="144" width="30" height="40" fill="#3726F7" fill-opacity="0.07"/>
<rect x="1073" y="144" width="30" height="40" fill="#3726F7" fill-opacity="0.07"/>
<rect x="1110" y="144" width="30" height="40" fill="#3726F7" fill-opacity="0.07"/>
<rect x="1147" y="144" width="30" height="40" fill="#3726F7" fill-opacity="0.07"/>
<rect x="1184" y="144" width="30" height="40" fill="#3726F7" fill-opacity="0.07"/>
<rect x="1221" y="144" width="30" height="40" fill="#3726F7" fill-opacity="0.07"/>
<rect y="192" width="30" height="40" fill="#3726F7" fill-opacity="0.07"/>
<rect x="37" y="192" width="30" height="40" fill="#3726F7" fill-opacity="0.07"/>
<rect x="74" y="192" width="30" height="40" fill="#3726F7" fill-opacity="0.07"/>
<rect x="111" y="192" width="30" height="40" fill="#3726F7" fill-opacity="0.07"/>
<rect x="148" y="192" width="30" height="40" fill="#3726F7" fill-opacity="0.07"/>
<rect x="185" y="192" width="30" height="40" fill="#3726F7" fill-opacity="0.07"/>
<rect x="222" y="192" width="30" height="40" fill="#3726F7" fill-opacity="0.07"/>
<rect x="259" y="192" width="30" height="40" fill="#3726F7" fill-opacity="0.07"/>
<rect x="296" y="192" width="30" height="40" fill="#3726F7" fill-opacity="0.07"/>
<rect x="333" y="192" width="30" height="40" fill="#3726F7" fill-opacity="0.07"/>
<rect x="370" y="192" width="30" height="40" fill="#3726F7" fill-opacity="0.07"/>
<rect x="407" y="192" width="30" height="40" fill="#3726F7" fill-opacity="0.07"/>
<rect x="444" y="192" width="30" height="40" fill="#3726F7" fill-opacity="0.07"/>
<rect x="481" y="192" width="30" height="40" fill="#3726F7" fill-opacity="0.07"/>
<rect x="518" y="192" width="30" height="40" fill="#3726F7" fill-opacity="0.07"/>
<rect x="555" y="192" width="30" height="40" fill="#3726F7" fill-opacity="0.07"/>
<rect x="592" y="192" width="30" height="40" fill="#3726F7" fill-opacity="0.07"/>
<rect x="629" y="192" width="30" height="40" fill="#3726F7" fill-opacity="0.07"/>
<rect x="666" y="192" width="30" height="40" fill="#3726F7" fill-opacity="0.07"/>
<rect x="703" y="192" width="30" height="40" fill="#3726F7" fill-opacity="0.07"/>
<rect x="740" y="192" width="30" height="40" fill="#3726F7" fill-opacity="0.07"/>
<rect x="777" y="192" width="30" height="40" fill="#3726F7" fill-opacity="0.07"/>
<rect x="814" y="192" width="30" height="40" fill="#3726F7" fill-opacity="0.07"/>
<rect x="851" y="192" width="30" height="40" fill="#3726F7" fill-opacity="0.07"/>
<rect x="888" y="192" width="30" height="40" fill="#3726F7" fill-opacity="0.07"/>
<rect x="925" y="192" width="30" height="40" fill="#3726F7" fill-opacity="0.07"/>
<rect x="962" y="192" width="30" height="40" fill="#3726F7" fill-opacity="0.07"/>
<rect x="999" y="192" width="30" height="40" fill="#3726F7" fill-opacity="0.07"/>
<rect x="1036" y="192" width="30" height="40" fill="#3726F7" fill-opacity="0.07"/>
<rect x="1073" y="192" width="30" height="40" fill="#3726F7" fill-opacity="0.07"/>
<rect x="1110" y="192" width="30" height="40" fill="#3726F7" fill-opacity="0.07"/>
<rect x="1147" y="192" width="30" height="40" fill="#3726F7" fill-opacity="0.07"/>
<rect x="1184" y="192" width="30" height="40" fill="#3726F7" fill-opacity="0.07"/>
<rect x="1221" y="192" width="30" height="40" fill="#3726F7" fill-opacity="0.07"/>
<rect y="240" width="30" height="40" fill="#3726F7" fill-opacity="0.07"/>
<rect x="37" y="240" width="30" height="40" fill="#3726F7" fill-opacity="0.07"/>
<rect x="74" y="240" width="30" height="40" fill="#3726F7" fill-opacity="0.07"/>
<rect x="111" y="240" width="30" height="40" fill="#3726F7" fill-opacity="0.07"/>
<rect x="148" y="240" width="30" height="40" fill="#3726F7" fill-opacity="0.07"/>
<rect x="185" y="240" width="30" height="40" fill="#3726F7" fill-opacity="0.07"/>
<rect x="222" y="240" width="30" height="40" fill="#3726F7" fill-opacity="0.07"/>
<rect x="259" y="240" width="30" height="40" fill="#3726F7" fill-opacity="0.07"/>
<rect x="296" y="240" width="30" height="40" fill="#3726F7" fill-opacity="0.07"/>
<rect x="333" y="240" width="30" height="40" fill="#3726F7" fill-opacity="0.07"/>
<rect x="370" y="240" width="30" height="40" fill="#3726F7" fill-opacity="0.07"/>
<rect x="407" y="240" width="30" height="40" fill="#3726F7" fill-opacity="0.07"/>
<rect x="444" y="240" width="30" height="40" fill="#3726F7" fill-opacity="0.07"/>
<rect x="481" y="240" width="30" height="40" fill="#3726F7" fill-opacity="0.07"/>
<rect x="518" y="240" width="30" height="40" fill="#3726F7" fill-opacity="0.07"/>
<rect x="555" y="240" width="30" height="40" fill="#3726F7" fill-opacity="0.07"/>
<rect x="592" y="240" width="30" height="40" fill="#3726F7" fill-opacity="0.07"/>
<rect x="629" y="240" width="30" height="40" fill="#3726F7" fill-opacity="0.07"/>
<rect x="666" y="240" width="30" height="40" fill="#3726F7" fill-opacity="0.07"/>
<rect x="703" y="240" width="30" height="40" fill="#3726F7" fill-opacity="0.07"/>
<rect x="740" y="240" width="30" height="40" fill="#3726F7" fill-opacity="0.07"/>
<rect x="777" y="240" width="30" height="40" fill="#3726F7" fill-opacity="0.07"/>
<rect x="814" y="240" width="30" height="40" fill="#3726F7" fill-opacity="0.07"/>
<rect x="851" y="240" width="30" height="40" fill="#3726F7" fill-opacity="0.07"/>
<rect x="888" y="240" width="30" height="40" fill="#3726F7" fill-opacity="0.07"/>
<rect x="925" y="240" width="30" height="40" fill="#3726F7" fill-opacity="0.07"/>
<rect x="962" y="240" width="30" height="40" fill="#3726F7" fill-opacity="0.07"/>
<rect x="999" y="240" width="30" height="40" fill="#3726F7" fill-opacity="0.07"/>
<rect x="1036" y="240" width="30" height="40" fill="#3726F7" fill-opacity="0.07"/>
<rect x="1073" y="240" width="30" height="40" fill="#3726F7" fill-opacity="0.07"/>
<rect x="1110" y="240" width="30" height="40" fill="#3726F7" fill-opacity="0.07"/>
<rect x="1147" y="240" width="30" height="40" fill="#3726F7" fill-opacity="0.07"/>
<rect x="1184" y="240" width="30" height="40" fill="#3726F7" fill-opacity="0.07"/>
<rect x="1221" y="240" width="30" height="40" fill="#3726F7" fill-opacity="0.07"/>
<rect y="288" width="30" height="40" fill="#3726F7" fill-opacity="0.07"/>
<rect x="37" y="288" width="30" height="40" fill="#3726F7" fill-opacity="0.07"/>
<rect x="74" y="288" width="30" height="40" fill="#3726F7" fill-opacity="0.07"/>
<rect x="111" y="288" width="30" height="40" fill="#3726F7" fill-opacity="0.07"/>
<rect x="148" y="288" width="30" height="40" fill="#3726F7" fill-opacity="0.07"/>
<rect x="185" y="288" width="30" height="40" fill="#3726F7" fill-opacity="0.07"/>
<rect x="222" y="288" width="30" height="40" fill="#3726F7" fill-opacity="0.07"/>
<rect x="259" y="288" width="30" height="40" fill="#3726F7" fill-opacity="0.07"/>
<rect x="296" y="288" width="30" height="40" fill="#3726F7" fill-opacity="0.07"/>
<rect x="333" y="288" width="30" height="40" fill="#3726F7" fill-opacity="0.07"/>
<rect x="370" y="288" width="30" height="40" fill="#3726F7" fill-opacity="0.07"/>
<rect x="407" y="288" width="30" height="40" fill="#3726F7" fill-opacity="0.07"/>
<rect x="444" y="288" width="30" height="40" fill="#3726F7" fill-opacity="0.07"/>
<rect x="481" y="288" width="30" height="40" fill="#3726F7" fill-opacity="0.07"/>
<rect x="518" y="288" width="30" height="40" fill="#3726F7" fill-opacity="0.07"/>
<rect x="555" y="288" width="30" height="40" fill="#3726F7" fill-opacity="0.07"/>
<rect x="592" y="288" width="30" height="40" fill="#3726F7" fill-opacity="0.07"/>
<rect x="629" y="288" width="30" height="40" fill="#3726F7" fill-opacity="0.07"/>
<rect x="666" y="288" width="30" height="40" fill="#3726F7" fill-opacity="0.07"/>
<rect x="703" y="288" width="30" height="40" fill="#3726F7" fill-opacity="0.07"/>
<rect x="740" y="288" width="30" height="40" fill="#3726F7" fill-opacity="0.07"/>
<rect x="777" y="288" width="30" height="40" fill="#3726F7" fill-opacity="0.07"/>
<rect x="814" y="288" width="30" height="40" fill="#3726F7" fill-opacity="0.07"/>
<rect x="851" y="288" width="30" height="40" fill="#3726F7" fill-opacity="0.07"/>
<rect x="888" y="288" width="30" height="40" fill="#3726F7" fill-opacity="0.07"/>
<rect x="925" y="288" width="30" height="40" fill="#3726F7" fill-opacity="0.07"/>
<rect x="962" y="288" width="30" height="40" fill="#3726F7" fill-opacity="0.07"/>
<rect x="999" y="288" width="30" height="40" fill="#3726F7" fill-opacity="0.07"/>
<rect x="1036" y="288" width="30" height="40" fill="#3726F7" fill-opacity="0.07"/>
<rect x="1073" y="288" width="30" height="40" fill="#3726F7" fill-opacity="0.07"/>
<rect x="1110" y="288" width="30" height="40" fill="#3726F7" fill-opacity="0.07"/>
<rect x="1147" y="288" width="30" height="40" fill="#3726F7" fill-opacity="0.07"/>
<rect x="1184" y="288" width="30" height="40" fill="#3726F7" fill-opacity="0.07"/>
<rect x="1221" y="288" width="30" height="40" fill="#3726F7" fill-opacity="0.07"/>
<rect y="336" width="30" height="40" fill="#3726F7" fill-opacity="0.07"/>
<rect x="37" y="336" width="30" height="40" fill="#3726F7" fill-opacity="0.07"/>
<rect x="74" y="336" width="30" height="40" fill="#3726F7" fill-opacity="0.07"/>
<rect x="111" y="336" width="30" height="40" fill="#3726F7" fill-opacity="0.07"/>
<rect x="148" y="336" width="30" height="40" fill="#3726F7" fill-opacity="0.07"/>
<rect x="185" y="336" width="30" height="40" fill="#3726F7" fill-opacity="0.07"/>
<rect x="222" y="336" width="30" height="40" fill="#3726F7" fill-opacity="0.07"/>
<rect x="259" y="336" width="30" height="40" fill="#3726F7" fill-opacity="0.07"/>
<rect x="296" y="336" width="30" height="40" fill="#3726F7" fill-opacity="0.07"/>
<rect x="333" y="336" width="30" height="40" fill="#3726F7" fill-opacity="0.07"/>
<rect x="370" y="336" width="30" height="40" fill="#3726F7" fill-opacity="0.07"/>
<rect x="407" y="336" width="30" height="40" fill="#3726F7" fill-opacity="0.07"/>
<rect x="444" y="336" width="30" height="40" fill="#3726F7" fill-opacity="0.07"/>
<rect x="481" y="336" width="30" height="40" fill="#3726F7" fill-opacity="0.07"/>
<rect x="518" y="336" width="30" height="40" fill="#3726F7" fill-opacity="0.07"/>
<rect x="555" y="336" width="30" height="40" fill="#3726F7" fill-opacity="0.07"/>
<rect x="592" y="336" width="30" height="40" fill="#3726F7" fill-opacity="0.07"/>
<rect x="629" y="336" width="30" height="40" fill="#3726F7" fill-opacity="0.07"/>
<rect x="666" y="336" width="30" height="40" fill="#3726F7" fill-opacity="0.07"/>
<rect x="703" y="336" width="30" height="40" fill="#3726F7" fill-opacity="0.07"/>
<rect x="740" y="336" width="30" height="40" fill="#3726F7" fill-opacity="0.07"/>
<rect x="777" y="336" width="30" height="40" fill="#3726F7" fill-opacity="0.07"/>
<rect x="814" y="336" width="30" height="40" fill="#3726F7" fill-opacity="0.07"/>
<rect x="851" y="336" width="30" height="40" fill="#3726F7" fill-opacity="0.07"/>
<rect x="888" y="336" width="30" height="40" fill="#3726F7" fill-opacity="0.07"/>
<rect x="925" y="336" width="30" height="40" fill="#3726F7" fill-opacity="0.07"/>
<rect x="962" y="336" width="30" height="40" fill="#3726F7" fill-opacity="0.07"/>
<rect x="999" y="336" width="30" height="40" fill="#3726F7" fill-opacity="0.07"/>
<rect x="1036" y="336" width="30" height="40" fill="#3726F7" fill-opacity="0.07"/>
<rect x="1073" y="336" width="30" height="40" fill="#3726F7" fill-opacity="0.07"/>
<rect x="1110" y="336" width="30" height="40" fill="#3726F7" fill-opacity="0.07"/>
<rect x="1147" y="336" width="30" height="40" fill="#3726F7" fill-opacity="0.07"/>
<rect x="1184" y="336" width="30" height="40" fill="#3726F7" fill-opacity="0.07"/>
<rect x="1221" y="336" width="30" height="40" fill="#3726F7" fill-opacity="0.07"/>
<rect y="384" width="30" height="40" fill="#3726F7" fill-opacity="0.07"/>
<rect x="37" y="384" width="30" height="40" fill="#3726F7" fill-opacity="0.07"/>
<rect x="74" y="384" width="30" height="40" fill="#3726F7" fill-opacity="0.07"/>
<rect x="111" y="384" width="30" height="40" fill="#3726F7" fill-opacity="0.07"/>
<rect x="148" y="384" width="30" height="40" fill="#3726F7" fill-opacity="0.07"/>
<rect x="185" y="384" width="30" height="40" fill="#3726F7" fill-opacity="0.07"/>
<rect x="222" y="384" width="30" height="40" fill="#3726F7" fill-opacity="0.07"/>
<rect x="259" y="384" width="30" height="40" fill="#3726F7" fill-opacity="0.07"/>
<rect x="296" y="384" width="30" height="40" fill="#3726F7" fill-opacity="0.07"/>
<rect x="333" y="384" width="30" height="40" fill="#3726F7" fill-opacity="0.07"/>
<rect x="370" y="384" width="30" height="40" fill="#3726F7" fill-opacity="0.07"/>
<rect x="407" y="384" width="30" height="40" fill="#3726F7" fill-opacity="0.07"/>
<rect x="444" y="384" width="30" height="40" fill="#3726F7" fill-opacity="0.07"/>
<rect x="481" y="384" width="30" height="40" fill="#3726F7" fill-opacity="0.07"/>
<rect x="518" y="384" width="30" height="40" fill="#3726F7" fill-opacity="0.07"/>
<rect x="555" y="384" width="30" height="40" fill="#3726F7" fill-opacity="0.07"/>
<rect x="592" y="384" width="30" height="40" fill="#3726F7" fill-opacity="0.07"/>
<rect x="629" y="384" width="30" height="40" fill="#3726F7" fill-opacity="0.07"/>
<rect x="666" y="384" width="30" height="40" fill="#3726F7" fill-opacity="0.07"/>
<rect x="703" y="384" width="30" height="40" fill="#3726F7" fill-opacity="0.07"/>
<rect x="740" y="384" width="30" height="40" fill="#3726F7" fill-opacity="0.07"/>
<rect x="777" y="384" width="30" height="40" fill="#3726F7" fill-opacity="0.07"/>
<rect x="814" y="384" width="30" height="40" fill="#3726F7" fill-opacity="0.07"/>
<rect x="851" y="384" width="30" height="40" fill="#3726F7" fill-opacity="0.07"/>
<rect x="888" y="384" width="30" height="40" fill="#3726F7" fill-opacity="0.07"/>
<rect x="925" y="384" width="30" height="40" fill="#3726F7" fill-opacity="0.07"/>
<rect x="962" y="384" width="30" height="40" fill="#3726F7" fill-opacity="0.07"/>
<rect x="999" y="384" width="30" height="40" fill="#3726F7" fill-opacity="0.07"/>
<rect x="1036" y="384" width="30" height="40" fill="#3726F7" fill-opacity="0.07"/>
<rect x="1073" y="384" width="30" height="40" fill="#3726F7" fill-opacity="0.07"/>
<rect x="1110" y="384" width="30" height="40" fill="#3726F7" fill-opacity="0.07"/>
<rect x="1147" y="384" width="30" height="40" fill="#3726F7" fill-opacity="0.07"/>
<rect x="1184" y="384" width="30" height="40" fill="#3726F7" fill-opacity="0.07"/>
<rect x="1221" y="384" width="30" height="40" fill="#3726F7" fill-opacity="0.07"/>
<rect y="432" width="30" height="40" fill="#3726F7" fill-opacity="0.07"/>
<rect x="37" y="432" width="30" height="40" fill="#3726F7" fill-opacity="0.07"/>
<rect x="74" y="432" width="30" height="40" fill="#3726F7" fill-opacity="0.07"/>
<rect x="111" y="432" width="30" height="40" fill="#3726F7" fill-opacity="0.07"/>
<rect x="148" y="432" width="30" height="40" fill="#3726F7" fill-opacity="0.07"/>
<rect x="185" y="432" width="30" height="40" fill="#3726F7" fill-opacity="0.07"/>
<rect x="222" y="432" width="30" height="40" fill="#3726F7" fill-opacity="0.07"/>
<rect x="259" y="432" width="30" height="40" fill="#3726F7" fill-opacity="0.07"/>
<rect x="296" y="432" width="30" height="40" fill="#3726F7" fill-opacity="0.07"/>
<rect x="333" y="432" width="30" height="40" fill="#3726F7" fill-opacity="0.07"/>
<rect x="370" y="432" width="30" height="40" fill="#3726F7" fill-opacity="0.07"/>
<rect x="407" y="432" width="30" height="40" fill="#3726F7" fill-opacity="0.07"/>
<rect x="444" y="432" width="30" height="40" fill="#3726F7" fill-opacity="0.07"/>
<rect x="481" y="432" width="30" height="40" fill="#3726F7" fill-opacity="0.07"/>
<rect x="518" y="432" width="30" height="40" fill="#3726F7" fill-opacity="0.07"/>
<rect x="555" y="432" width="30" height="40" fill="#3726F7" fill-opacity="0.07"/>
<rect x="592" y="432" width="30" height="40" fill="#3726F7" fill-opacity="0.07"/>
<rect x="629" y="432" width="30" height="40" fill="#3726F7" fill-opacity="0.07"/>
<rect x="666" y="432" width="30" height="40" fill="#3726F7" fill-opacity="0.07"/>
<rect x="703" y="432" width="30" height="40" fill="#3726F7" fill-opacity="0.07"/>
<rect x="740" y="432" width="30" height="40" fill="#3726F7" fill-opacity="0.07"/>
<rect x="777" y="432" width="30" height="40" fill="#3726F7" fill-opacity="0.07"/>
<rect x="814" y="432" width="30" height="40" fill="#3726F7" fill-opacity="0.07"/>
<rect x="851" y="432" width="30" height="40" fill="#3726F7" fill-opacity="0.07"/>
<rect x="888" y="432" width="30" height="40" fill="#3726F7" fill-opacity="0.07"/>
<rect x="925" y="432" width="30" height="40" fill="#3726F7" fill-opacity="0.07"/>
<rect x="962" y="432" width="30" height="40" fill="#3726F7" fill-opacity="0.07"/>
<rect x="999" y="432" width="30" height="40" fill="#3726F7" fill-opacity="0.07"/>
<rect x="1036" y="432" width="30" height="40" fill="#3726F7" fill-opacity="0.07"/>
<rect x="1073" y="432" width="30" height="40" fill="#3726F7" fill-opacity="0.07"/>
<rect x="1110" y="432" width="30" height="40" fill="#3726F7" fill-opacity="0.07"/>
<rect x="1147" y="432" width="30" height="40" fill="#3726F7" fill-opacity="0.07"/>
<rect x="1184" y="432" width="30" height="40" fill="#3726F7" fill-opacity="0.07"/>
<rect x="1221" y="432" width="30" height="40" fill="#3726F7" fill-opacity="0.07"/>
<rect y="480" width="30" height="40" fill="#3726F7" fill-opacity="0.07"/>
<rect x="37" y="480" width="30" height="40" fill="#3726F7" fill-opacity="0.07"/>
<rect x="74" y="480" width="30" height="40" fill="#3726F7" fill-opacity="0.07"/>
<rect x="111" y="480" width="30" height="40" fill="#3726F7" fill-opacity="0.07"/>
<rect x="148" y="480" width="30" height="40" fill="#3726F7" fill-opacity="0.07"/>
<rect x="185" y="480" width="30" height="40" fill="#3726F7" fill-opacity="0.07"/>
<rect x="222" y="480" width="30" height="40" fill="#3726F7" fill-opacity="0.07"/>
<rect x="259" y="480" width="30" height="40" fill="#3726F7" fill-opacity="0.07"/>
<rect x="296" y="480" width="30" height="40" fill="#3726F7" fill-opacity="0.07"/>
<rect x="333" y="480" width="30" height="40" fill="#3726F7" fill-opacity="0.07"/>
<rect x="370" y="480" width="30" height="40" fill="#3726F7" fill-opacity="0.07"/>
<rect x="407" y="480" width="30" height="40" fill="#3726F7" fill-opacity="0.07"/>
<rect x="444" y="480" width="30" height="40" fill="#3726F7" fill-opacity="0.07"/>
<rect x="481" y="480" width="30" height="40" fill="#3726F7" fill-opacity="0.07"/>
<rect x="518" y="480" width="30" height="40" fill="#3726F7" fill-opacity="0.07"/>
<rect x="555" y="480" width="30" height="40" fill="#3726F7" fill-opacity="0.07"/>
<rect x="592" y="480" width="30" height="40" fill="#3726F7" fill-opacity="0.07"/>
<rect x="629" y="480" width="30" height="40" fill="#3726F7" fill-opacity="0.07"/>
<rect x="666" y="480" width="30" height="40" fill="#3726F7" fill-opacity="0.07"/>
<rect x="703" y="480" width="30" height="40" fill="#3726F7" fill-opacity="0.07"/>
<rect x="740" y="480" width="30" height="40" fill="#3726F7" fill-opacity="0.07"/>
<rect x="777" y="480" width="30" height="40" fill="#3726F7" fill-opacity="0.07"/>
<rect x="814" y="480" width="30" height="40" fill="#3726F7" fill-opacity="0.07"/>
<rect x="851" y="480" width="30" height="40" fill="#3726F7" fill-opacity="0.07"/>
<rect x="888" y="480" width="30" height="40" fill="#3726F7" fill-opacity="0.07"/>
<rect x="925" y="480" width="30" height="40" fill="#3726F7" fill-opacity="0.07"/>
<rect x="962" y="480" width="30" height="40" fill="#3726F7" fill-opacity="0.07"/>
<rect x="999" y="480" width="30" height="40" fill="#3726F7" fill-opacity="0.07"/>
<rect x="1036" y="480" width="30" height="40" fill="#3726F7" fill-opacity="0.07"/>
<rect x="1073" y="480" width="30" height="40" fill="#3726F7" fill-opacity="0.07"/>
<rect x="1110" y="480" width="30" height="40" fill="#3726F7" fill-opacity="0.07"/>
<rect x="1147" y="480" width="30" height="40" fill="#3726F7" fill-opacity="0.07"/>
<rect x="1184" y="480" width="30" height="40" fill="#3726F7" fill-opacity="0.07"/>
<rect x="1221" y="480" width="30" height="40" fill="#3726F7" fill-opacity="0.07"/>
<rect y="528" width="30" height="40" fill="#3726F7" fill-opacity="0.07"/>
<rect x="37" y="528" width="30" height="40" fill="#3726F7" fill-opacity="0.07"/>
<rect x="74" y="528" width="30" height="40" fill="#3726F7" fill-opacity="0.2"/>
<rect x="111" y="528" width="30" height="40" fill="#3726F7" fill-opacity="0.07"/>
<rect x="148" y="528" width="30" height="40" fill="#3726F7" fill-opacity="0.07"/>
<rect x="185" y="528" width="30" height="40" fill="#3726F7" fill-opacity="0.07"/>
<rect x="222" y="528" width="30" height="40" fill="#3726F7" fill-opacity="0.07"/>
<rect x="259" y="528" width="30" height="40" fill="#3726F7" fill-opacity="0.07"/>
<rect x="296" y="528" width="30" height="40" fill="#3726F7" fill-opacity="0.07"/>
<rect x="333" y="528" width="30" height="40" fill="#3726F7" fill-opacity="0.07"/>
<rect x="370" y="528" width="30" height="40" fill="#3726F7" fill-opacity="0.07"/>
<rect x="407" y="528" width="30" height="40" fill="#3726F7" fill-opacity="0.07"/>
<rect x="444" y="528" width="30" height="40" fill="#3726F7" fill-opacity="0.07"/>
<rect x="481" y="528" width="30" height="40" fill="#3726F7" fill-opacity="0.07"/>
<rect x="518" y="528" width="30" height="40" fill="#3726F7" fill-opacity="0.07"/>
<rect x="555" y="528" width="30" height="40" fill="#3726F7" fill-opacity="0.07"/>
<rect x="592" y="528" width="30" height="40" fill="#3726F7" fill-opacity="0.07"/>
<rect x="629" y="528" width="30" height="40" fill="#3726F7" fill-opacity="0.07"/>
<rect x="666" y="528" width="30" height="40" fill="#3726F7" fill-opacity="0.07"/>
<rect x="703" y="528" width="30" height="40" fill="#3726F7" fill-opacity="0.07"/>
<rect x="740" y="528" width="30" height="40" fill="#3726F7" fill-opacity="0.07"/>
<rect x="777" y="528" width="30" height="40" fill="#3726F7" fill-opacity="0.07"/>
<rect x="814" y="528" width="30" height="40" fill="#3726F7" fill-opacity="0.07"/>
<rect x="851" y="528" width="30" height="40" fill="#3726F7" fill-opacity="0.07"/>
<rect x="888" y="528" width="30" height="40" fill="#3726F7" fill-opacity="0.07"/>
<rect x="925" y="528" width="30" height="40" fill="#3726F7" fill-opacity="0.07"/>
<rect x="962" y="528" width="30" height="40" fill="#3726F7" fill-opacity="0.07"/>
<rect x="999" y="528" width="30" height="40" fill="#3726F7" fill-opacity="0.2"/>
<rect x="1036" y="528" width="30" height="40" fill="#3726F7" fill-opacity="0.07"/>
<rect x="1073" y="528" width="30" height="40" fill="#3726F7" fill-opacity="0.07"/>
<rect x="1110" y="528" width="30" height="40" fill="#3726F7" fill-opacity="0.07"/>
<rect x="1147" y="528" width="30" height="40" fill="#3726F7" fill-opacity="0.07"/>
<rect x="1184" y="528" width="30" height="40" fill="#3726F7" fill-opacity="0.07"/>
<rect x="1221" y="528" width="30" height="40" fill="#3726F7" fill-opacity="0.07"/>
<rect y="576" width="30" height="40" fill="#3726F7" fill-opacity="0.07"/>
<rect x="37" y="576" width="30" height="40" fill="#3726F7" fill-opacity="0.07"/>
<rect x="74" y="576" width="30" height="40" fill="#3726F7" fill-opacity="0.07"/>
<rect x="111" y="576" width="30" height="40" fill="#3726F7" fill-opacity="0.07"/>
<rect x="148" y="576" width="30" height="40" fill="#3726F7" fill-opacity="0.07"/>
<rect x="185" y="576" width="30" height="40" fill="#3726F7" fill-opacity="0.07"/>
<rect x="222" y="576" width="30" height="40" fill="#3726F7" fill-opacity="0.2"/>
<rect x="259" y="576" width="30" height="40" fill="#3726F7" fill-opacity="0.07"/>
<rect x="296" y="576" width="30" height="40" fill="#3726F7" fill-opacity="0.07"/>
<rect x="333" y="576" width="30" height="40" fill="#3726F7" fill-opacity="0.07"/>
<rect x="370" y="576" width="30" height="40" fill="#3726F7" fill-opacity="0.07"/>
<rect x="407" y="576" width="30" height="40" fill="#3726F7" fill-opacity="0.07"/>
<rect x="444" y="576" width="30" height="40" fill="#3726F7" fill-opacity="0.07"/>
<rect x="481" y="576" width="30" height="40" fill="#3726F7" fill-opacity="0.07"/>
<rect x="518" y="576" width="30" height="40" fill="#3726F7" fill-opacity="0.07"/>
<rect x="555" y="576" width="30" height="40" fill="#3726F7" fill-opacity="0.07"/>
<rect x="592" y="576" width="30" height="40" fill="#3726F7" fill-opacity="0.07"/>
<rect x="629" y="576" width="30" height="40" fill="#3726F7" fill-opacity="0.07"/>
<rect x="666" y="576" width="30" height="40" fill="#3726F7" fill-opacity="0.07"/>
<rect x="703" y="576" width="30" height="40" fill="#3726F7" fill-opacity="0.07"/>
<rect x="740" y="576" width="30" height="40" fill="#3726F7" fill-opacity="0.07"/>
<rect x="777" y="576" width="30" height="40" fill="#3726F7" fill-opacity="0.07"/>
<rect x="814" y="576" width="30" height="40" fill="#3726F7" fill-opacity="0.2"/>
<rect x="851" y="576" width="30" height="40" fill="#3726F7" fill-opacity="0.07"/>
<rect x="888" y="576" width="30" height="40" fill="#3726F7" fill-opacity="0.07"/>
<rect x="925" y="576" width="30" height="40" fill="#3726F7" fill-opacity="0.07"/>
<rect x="962" y="576" width="30" height="40" fill="#3726F7" fill-opacity="0.07"/>
<rect x="999" y="576" width="30" height="40" fill="#3726F7" fill-opacity="0.07"/>
<rect x="1036" y="576" width="30" height="40" fill="#3726F7" fill-opacity="0.07"/>
<rect x="1073" y="576" width="30" height="40" fill="#3726F7" fill-opacity="0.07"/>
<rect x="1110" y="576" width="30" height="40" fill="#3726F7" fill-opacity="0.07"/>
<rect x="1147" y="576" width="30" height="40" fill="#3726F7" fill-opacity="0.07"/>
<rect x="1184" y="576" width="30" height="40" fill="#3726F7" fill-opacity="0.07"/>
<rect x="1221" y="576" width="30" height="40" fill="#3726F7" fill-opacity="0.07"/>
<rect y="624" width="30" height="40" fill="#3726F7" fill-opacity="0.07"/>
<rect x="37" y="624" width="30" height="40" fill="#3726F7" fill-opacity="0.07"/>
<rect x="74" y="624" width="30" height="40" fill="#3726F7" fill-opacity="0.2"/>
<rect x="111" y="624" width="30" height="40" fill="#3726F7" fill-opacity="0.07"/>
<rect x="148" y="624" width="30" height="40" fill="#3726F7" fill-opacity="0.07"/>
<rect x="185" y="624" width="30" height="40" fill="#3726F7" fill-opacity="0.07"/>
<rect x="222" y="624" width="30" height="40" fill="#3726F7" fill-opacity="0.07"/>
<rect x="259" y="624" width="30" height="40" fill="#3726F7" fill-opacity="0.07"/>
<rect x="296" y="624" width="30" height="40" fill="#3726F7" fill-opacity="0.2"/>
<rect x="333" y="624" width="30" height="40" fill="#3726F7" fill-opacity="0.07"/>
<rect x="370" y="624" width="30" height="40" fill="#3726F7" fill-opacity="0.07"/>
<rect x="407" y="624" width="30" height="40" fill="#3726F7" fill-opacity="0.07"/>
<rect x="444" y="624" width="30" height="40" fill="#3726F7" fill-opacity="0.07"/>
<rect x="481" y="624" width="30" height="40" fill="#3726F7" fill-opacity="0.07"/>
<rect x="518" y="624" width="30" height="40" fill="#3726F7" fill-opacity="0.07"/>
<rect x="555" y="624" width="30" height="40" fill="#3726F7" fill-opacity="0.07"/>
<rect x="592" y="624" width="30" height="40" fill="#3726F7" fill-opacity="0.07"/>
<rect x="629" y="624" width="30" height="40" fill="#3726F7" fill-opacity="0.07"/>
<rect x="666" y="624" width="30" height="40" fill="#3726F7" fill-opacity="0.2"/>
<rect x="703" y="624" width="30" height="40" fill="#3726F7" fill-opacity="0.07"/>
<rect x="740" y="624" width="30" height="40" fill="#3726F7" fill-opacity="0.07"/>
<rect x="777" y="624" width="30" height="40" fill="#3726F7" fill-opacity="0.07"/>
<rect x="814" y="624" width="30" height="40" fill="#3726F7" fill-opacity="0.07"/>
<rect x="851" y="624" width="30" height="40" fill="#3726F7" fill-opacity="0.07"/>
<rect x="888" y="624" width="30" height="40" fill="#3726F7" fill-opacity="0.07"/>
<rect x="925" y="624" width="30" height="40" fill="#3726F7" fill-opacity="0.2"/>
<rect x="962" y="624" width="30" height="40" fill="#3726F7" fill-opacity="0.07"/>
<rect x="999" y="624" width="30" height="40" fill="#3726F7" fill-opacity="0.07"/>
<rect x="1036" y="624" width="30" height="40" fill="#3726F7" fill-opacity="0.07"/>
<rect x="1073" y="624" width="30" height="40" fill="#3726F7" fill-opacity="0.07"/>
<rect x="1110" y="624" width="30" height="40" fill="#3726F7" fill-opacity="0.07"/>
<rect x="1147" y="624" width="30" height="40" fill="#3726F7" fill-opacity="0.07"/>
<rect x="1184" y="624" width="30" height="40" fill="#3726F7" fill-opacity="0.07"/>
<rect x="1221" y="624" width="30" height="40" fill="#3726F7" fill-opacity="0.07"/>
<rect y="672" width="30" height="40" fill="#3726F7" fill-opacity="0.2"/>
<rect x="37" y="672" width="30" height="40" fill="#3726F7" fill-opacity="0.07"/>
<rect x="74" y="672" width="30" height="40" fill="#3726F7" fill-opacity="0.07"/>
<rect x="111" y="672" width="30" height="40" fill="#3726F7" fill-opacity="0.07"/>
<rect x="148" y="672" width="30" height="40" fill="#3726F7" fill-opacity="0.07"/>
<rect x="185" y="672" width="30" height="40" fill="#3726F7" fill-opacity="0.2"/>
<rect x="222" y="672" width="30" height="40" fill="#3726F7" fill-opacity="0.07"/>
<rect x="259" y="672" width="30" height="40" fill="#3726F7" fill-opacity="0.07"/>
<rect x="296" y="672" width="30" height="40" fill="#3726F7" fill-opacity="0.07"/>
<rect x="333" y="672" width="30" height="40" fill="#3726F7" fill-opacity="0.07"/>
<rect x="370" y="672" width="30" height="40" fill="#3726F7" fill-opacity="0.07"/>
<rect x="407" y="672" width="30" height="40" fill="#3726F7" fill-opacity="0.07"/>
<rect x="444" y="672" width="30" height="40" fill="#3726F7" fill-opacity="0.07"/>
<rect x="481" y="672" width="30" height="40" fill="#3726F7" fill-opacity="0.07"/>
<rect x="518" y="672" width="30" height="40" fill="#3726F7" fill-opacity="0.07"/>
<rect x="555" y="672" width="30" height="40" fill="#3726F7" fill-opacity="0.2"/>
<rect x="592" y="672" width="30" height="40" fill="#3726F7" fill-opacity="0.07"/>
<rect x="629" y="672" width="30" height="40" fill="#3726F7" fill-opacity="0.07"/>
<rect x="666" y="672" width="30" height="40" fill="#3726F7" fill-opacity="0.07"/>
<rect x="703" y="672" width="30" height="40" fill="#3726F7" fill-opacity="0.07"/>
<rect x="740" y="672" width="30" height="40" fill="#3726F7" fill-opacity="0.07"/>
<rect x="777" y="672" width="30" height="40" fill="#3726F7" fill-opacity="0.07"/>
<rect x="814" y="672" width="30" height="40" fill="#3726F7" fill-opacity="0.07"/>
<rect x="851" y="672" width="30" height="40" fill="#3726F7" fill-opacity="0.07"/>
<rect x="888" y="672" width="30" height="40" fill="#3726F7" fill-opacity="0.07"/>
<rect x="925" y="672" width="30" height="40" fill="#3726F7" fill-opacity="0.07"/>
<rect x="962" y="672" width="30" height="40" fill="#3726F7" fill-opacity="0.07"/>
<rect x="999" y="672" width="30" height="40" fill="#3726F7" fill-opacity="0.07"/>
<rect x="1036" y="672" width="30" height="40" fill="#3726F7" fill-opacity="0.07"/>
<rect x="1073" y="672" width="30" height="40" fill="#3726F7" fill-opacity="0.07"/>
<rect x="1110" y="672" width="30" height="40" fill="#3726F7" fill-opacity="0.2"/>
<rect x="1147" y="672" width="30" height="40" fill="#3726F7" fill-opacity="0.07"/>
<rect x="1184" y="672" width="30" height="40" fill="#3726F7" fill-opacity="0.07"/>
<rect x="1221" y="672" width="30" height="40" fill="#3726F7" fill-opacity="0.07"/>
<rect y="720" width="30" height="40" fill="#3726F7" fill-opacity="0.07"/>
<rect x="37" y="720" width="30" height="40" fill="#3726F7" fill-opacity="0.07"/>
<rect x="74" y="720" width="30" height="40" fill="#3726F7" fill-opacity="0.07"/>
<rect x="111" y="720" width="30" height="40" fill="#3726F7" fill-opacity="0.07"/>
<rect x="148" y="720" width="30" height="40" fill="#3726F7" fill-opacity="0.07"/>
<rect x="185" y="720" width="30" height="40" fill="#3726F7" fill-opacity="0.07"/>
<rect x="222" y="720" width="30" height="40" fill="#3726F7" fill-opacity="0.07"/>
<rect x="259" y="720" width="30" height="40" fill="#3726F7" fill-opacity="0.07"/>
<rect x="296" y="720" width="30" height="40" fill="#3726F7" fill-opacity="0.07"/>
<rect x="333" y="720" width="30" height="40" fill="#3726F7" fill-opacity="0.2"/>
<rect x="370" y="720" width="30" height="40" fill="#3726F7" fill-opacity="0.07"/>
<rect x="407" y="720" width="30" height="40" fill="#3726F7" fill-opacity="0.07"/>
<rect x="444" y="720" width="30" height="40" fill="#3726F7" fill-opacity="0.07"/>
<rect x="481" y="720" width="30" height="40" fill="#3726F7" fill-opacity="0.07"/>
<rect x="518" y="720" width="30" height="40" fill="#3726F7" fill-opacity="0.07"/>
<rect x="555" y="720" width="30" height="40" fill="#3726F7" fill-opacity="0.07"/>
<rect x="592" y="720" width="30" height="40" fill="#3726F7" fill-opacity="0.07"/>
<rect x="629" y="720" width="30" height="40" fill="#3726F7" fill-opacity="0.07"/>
<rect x="666" y="720" width="30" height="40" fill="#3726F7" fill-opacity="0.07"/>
<rect x="703" y="720" width="30" height="40" fill="#3726F7" fill-opacity="0.07"/>
<rect x="740" y="720" width="30" height="40" fill="#3726F7" fill-opacity="0.2"/>
<rect x="777" y="720" width="30" height="40" fill="#3726F7" fill-opacity="0.07"/>
<rect x="814" y="720" width="30" height="40" fill="#3726F7" fill-opacity="0.07"/>
<rect x="851" y="720" width="30" height="40" fill="#3726F7" fill-opacity="0.07"/>
<rect x="888" y="720" width="30" height="40" fill="#3726F7" fill-opacity="0.07"/>
<rect x="925" y="720" width="30" height="40" fill="#3726F7" fill-opacity="0.07"/>
<rect x="962" y="720" width="30" height="40" fill="#3726F7" fill-opacity="0.2"/>
<rect x="999" y="720" width="30" height="40" fill="#3726F7" fill-opacity="0.07"/>
<rect x="1036" y="720" width="30" height="40" fill="#3726F7" fill-opacity="0.07"/>
<rect x="1073" y="720" width="30" height="40" fill="#3726F7" fill-opacity="0.07"/>
<rect x="1110" y="720" width="30" height="40" fill="#3726F7" fill-opacity="0.07"/>
<rect x="1147" y="720" width="30" height="40" fill="#3726F7" fill-opacity="0.07"/>
<rect x="1184" y="720" width="30" height="40" fill="#3726F7" fill-opacity="0.07"/>
<rect x="1221" y="720" width="30" height="40" fill="#3726F7" fill-opacity="0.2"/>
<rect y="768" width="30" height="40" fill="#3726F7" fill-opacity="0.07"/>
<rect x="37" y="768" width="30" height="40" fill="#3726F7" fill-opacity="0.07"/>
<rect x="74" y="768" width="30" height="40" fill="#3726F7" fill-opacity="0.07"/>
<rect x="111" y="768" width="30" height="40" fill="#3726F7" fill-opacity="0.07"/>
<rect x="148" y="768" width="30" height="40" fill="#3726F7" fill-opacity="0.2"/>
<rect x="185" y="768" width="30" height="40" fill="#3726F7" fill-opacity="0.07"/>
<rect x="222" y="768" width="30" height="40" fill="#3726F7" fill-opacity="0.07"/>
<rect x="259" y="768" width="30" height="40" fill="#3726F7" fill-opacity="0.2"/>
<rect x="296" y="768" width="30" height="40" fill="#3726F7" fill-opacity="0.07"/>
<rect x="333" y="768" width="30" height="40" fill="#3726F7" fill-opacity="0.07"/>
<rect x="370" y="768" width="30" height="40" fill="#3726F7" fill-opacity="0.07"/>
<rect x="407" y="768" width="30" height="40" fill="#3726F7" fill-opacity="0.07"/>
<rect x="444" y="768" width="30" height="40" fill="#3726F7" fill-opacity="0.07"/>
<rect x="481" y="768" width="30" height="40" fill="#3726F7" fill-opacity="0.07"/>
<rect x="518" y="768" width="30" height="40" fill="#3726F7" fill-opacity="0.2"/>
<rect x="555" y="768" width="30" height="40" fill="#3726F7" fill-opacity="0.07"/>
<rect x="592" y="768" width="30" height="40" fill="#3726F7" fill-opacity="0.07"/>
<rect x="629" y="768" width="30" height="40" fill="#3726F7" fill-opacity="0.07"/>
<rect x="666" y="768" width="30" height="40" fill="#3726F7" fill-opacity="0.07"/>
<rect x="703" y="768" width="30" height="40" fill="#3726F7" fill-opacity="0.07"/>
<rect x="740" y="768" width="30" height="40" fill="#3726F7" fill-opacity="0.07"/>
<rect x="777" y="768" width="30" height="40" fill="#3726F7" fill-opacity="0.07"/>
<rect x="814" y="768" width="30" height="40" fill="#3726F7" fill-opacity="0.07"/>
<rect x="851" y="768" width="30" height="40" fill="#3726F7" fill-opacity="0.2"/>
<rect x="888" y="768" width="30" height="40" fill="#3726F7" fill-opacity="0.07"/>
<rect x="925" y="768" width="30" height="40" fill="#3726F7" fill-opacity="0.07"/>
<rect x="962" y="768" width="30" height="40" fill="#3726F7" fill-opacity="0.07"/>
<rect x="999" y="768" width="30" height="40" fill="#3726F7" fill-opacity="0.07"/>
<rect x="1036" y="768" width="30" height="40" fill="#3726F7" fill-opacity="0.2"/>
<rect x="1073" y="768" width="30" height="40" fill="#3726F7" fill-opacity="0.07"/>
<rect x="1110" y="768" width="30" height="40" fill="#3726F7" fill-opacity="0.07"/>
<rect x="1147" y="768" width="30" height="40" fill="#3726F7" fill-opacity="0.07"/>
<rect x="1184" y="768" width="30" height="40" fill="#3726F7" fill-opacity="0.07"/>
<rect x="1221" y="768" width="30" height="40" fill="#3726F7" fill-opacity="0.07"/>
</svg>
