<svg width="138" height="138" viewBox="0 0 138 138" fill="none" xmlns="http://www.w3.org/2000/svg">
<rect width="138" height="138" fill="#0D1F7A"/>
<path d="M107.5 48.5H115L119.5 53V93.5L107.5 105.5H89.5L82 113H74.7266L83.2412 94.1855H96.8965L106 85.1768V60.5H96.8965V33H38.1035L29 42.0088V113H23L18 36L30 24H101.5L107.5 30.5V48.5Z" fill="#FFF047"/>
<rect x="40" y="37" width="54" height="38" fill="#3726F7"/>
<path d="M89.2364 68H80.5818L88.9273 86H95L97 84L89.2364 68Z" fill="#FFF047"/>
<path d="M100.236 68H91.5818L98.5 82.5L100.236 81L100.236 68Z" fill="#FFF047"/>
<path d="M77.7454 68H68.5818L77.4182 86H86.5818L77.7454 68Z" fill="#FFF047"/>
<path d="M66.2363 68H57.5818L65.9272 86H74.5818L66.2363 68Z" fill="#FFF047"/>
<path d="M54.7454 68H50V81.5L54.7454 86H63.5818L54.7454 68Z" fill="#FFF047"/>
</svg>
