<svg width="410" height="126" viewBox="0 0 410 126" fill="none" xmlns="http://www.w3.org/2000/svg">
<path d="M89.5 26H97L101.5 30.5V71L89.5 83H71.5L64 90.5H56.7266L65.2412 71.6855H78.8965L88 62.6768V38H78.8965V10.5H20.1035L11 19.5088V90.5H5L0 13.5L12 1.5H83.5L89.5 8V26Z" fill="#FFF047"/>
<rect x="22" y="14.5" width="54" height="38" fill="#3726F7"/>
<path d="M71.2363 45.5H62.5818L70.9272 63.5H77L79 61.5L71.2363 45.5Z" fill="#FFF047"/>
<path d="M82.2363 45.5H73.5818L80.5 60L82.2363 58.5L82.2363 45.5Z" fill="#FFF047"/>
<path d="M59.7454 45.5H50.5818L59.4182 63.5H68.5818L59.7454 45.5Z" fill="#FFF047"/>
<path d="M48.2363 45.5H39.5818L47.9272 63.5H56.5818L48.2363 45.5Z" fill="#FFF047"/>
<path d="M36.7454 45.5H32V59L36.7454 63.5H45.5818L36.7454 45.5Z" fill="#FFF047"/>
<path d="M123.624 9.8H138.636L140.688 12.716V16.568L137.16 20.24H137.34L141.012 25.64V32.912L137.628 35H123.624V9.8ZM127.98 13.832V20.24H131.544L136.296 15.236V13.832H127.98ZM127.98 24.272V30.932H136.692V26.36L135.18 24.272H127.98ZM158.206 15.164H162.562V35H158.278V33.812L156.262 35H148.486L145.21 30.176V15.164H149.566V29.384L150.61 30.932H157.558L158.206 30.248V15.164ZM166.472 15.164H168.956L172.088 17L173.852 15.164H182.024L184.472 18.836L181.124 21.104L179.9 19.196H175.58L174.428 20.42V30.968H179.54V35H166.472V30.968H170.108V20.744L169.064 19.196H166.472V15.164ZM201.378 15.164H205.734V35H201.45V33.812L199.434 35H191.658L188.382 30.176V15.164H192.738V29.384L193.782 30.932H200.73L201.378 30.248V15.164ZM209.968 7.316H214.324V16.352L216.268 15.164H224.008L227.356 19.88V35H223V20.708L221.956 19.196H215.044L214.324 19.88V35H209.968V7.316ZM256.956 9.8H267.756L270.672 14.192L267.792 17.216L265.596 13.904H258.612L257.964 14.624V29.348L259.008 30.932H265.92L268.476 28.376L270.744 31.76L267.648 35H256.848L253.608 30.176V13.184L256.956 9.8ZM278.074 15.164H288.91L292.15 19.988V31.58L288.838 35H278.038L274.762 30.176V18.584L278.074 15.164ZM279.082 29.384L280.126 30.932H287.11L287.758 30.248V20.744L286.714 19.196H279.766L279.082 19.952V29.384ZM309.524 7.352H313.88V35H309.524V33.812L307.58 35H299.804L296.492 30.14V18.62L299.804 15.128H307.58L309.524 16.316V7.352ZM300.848 29.384L301.892 30.932H308.876L309.524 30.284V20.78L308.48 19.196H301.568L300.848 19.952V29.384ZM319.409 14.48H325.457L328.661 19.232V31.076H335.249V35H317.897V31.076H324.485V19.988L323.405 18.404H319.409V14.48ZM324.053 10.52H329.093V5.48H324.053V10.52ZM339.483 15.164H343.839V16.352L345.819 15.164H353.631L356.871 19.952V35H352.515V20.744L351.471 19.196H344.487L343.839 19.952V35H339.483V15.164ZM367.801 34.1L366.361 35.396V37.304L367.261 38.636H371.509L373.957 36.26V34.352L373.777 34.1H367.801ZM366.001 20.528V24.02H371.653L373.993 22.58V20.78L372.949 19.304H367.153L366.001 20.528ZM372.049 28.124H367.045L366.181 29.024L366.721 29.996H375.973L378.493 33.92V37.952L373.237 42.74H365.173L361.825 38.456V34.424L363.661 32.588L360.961 28.484L362.797 26.72L361.681 26V19.16L365.461 15.2H372.049L373.993 16.352V15.2H378.349V24.236L372.049 28.124ZM123.588 55.8H141.012V59.868H134.46V76.932H141.012V81H123.588V76.932H130.104V59.868H123.588V55.8ZM145.21 61.164H149.566V62.352L151.546 61.164H159.358L162.598 65.952V81H158.242V66.744L157.198 65.196H150.214L149.566 65.952V81H145.21V61.164ZM170.288 54.072H174.644V61.128H180.476V65.196H174.644V75.384L175.652 76.932H178.676L181.232 74.376L183.536 77.724L180.476 81H173.528L170.288 76.248V65.196H167.408V61.128H170.288V54.072ZM191.766 61.092H202.386L205.662 65.988L199.29 72.54H192.702V75.132L193.854 76.824H200.766L202.746 74.772L205.266 77.94L202.314 81H191.694L188.562 76.32V64.404L191.766 61.092ZM192.702 66.132V68.904H197.706L200.37 66.096L199.794 65.268H193.53L192.702 66.132ZM209.644 61.164H212.128L215.26 63L217.024 61.164H225.196L227.644 64.836L224.296 67.104L223.072 65.196H218.752L217.6 66.42V76.968H222.712V81H209.644V76.968H213.28V66.744L212.236 65.196H209.644V61.164ZM231.554 61.164H235.91V62.352L237.89 61.164H245.702L248.942 65.952V81H244.586V66.744L243.542 65.196H236.558L235.91 65.952V81H231.554V61.164ZM255.984 61.092H268.008L270.528 64.8V81H266.172V79.812L264.192 81H256.344L253.104 76.176V74.268L258.9 68.22H266.172V65.088H255.984V61.092ZM257.604 75.384L258.288 76.932H266.028V72.324H260.52L257.604 75.312V75.384ZM278.398 60.912H288.91L291.358 64.476L288.55 67.392L286.822 64.872H280.198L279.55 65.448V67.104L280.558 68.58H288.982L291.79 72.756V77.832L288.946 81H276.958L275.014 77.976L277.822 75.096L279.082 76.932H287.074L287.434 76.536V73.62L286.75 72.612H278.326L275.23 67.968V64.008L278.398 60.912ZM297.824 60.48H303.872L307.076 65.232V77.076H313.664V81H296.312V77.076H302.9V65.988L301.82 64.404H297.824V60.48ZM302.468 56.52H307.508V51.48H302.468V56.52ZM321.245 61.164H332.081L335.321 65.988V77.58L332.009 81H321.209L317.933 76.176V64.584L321.245 61.164ZM322.253 75.384L323.297 76.932H330.281L330.929 76.248V66.744L329.885 65.196H322.937L322.253 65.952V75.384ZM339.483 61.164H343.839V62.352L345.819 61.164H353.631L356.871 65.952V81H352.515V66.744L351.471 65.196H344.487L343.839 65.952V81H339.483V61.164ZM363.913 61.092H375.937L378.457 64.8V81H374.101V79.812L372.121 81H364.273L361.033 76.176V74.268L366.829 68.22H374.101V65.088H363.913V61.092ZM365.533 75.384L366.217 76.932H373.957V72.324H368.449L365.533 75.312V75.384ZM383.339 54.072H388.703L392.123 56.088V75.42L393.167 76.968H399.287V81H391.043L387.803 76.212V58.104H383.339V54.072Z" fill="#FFF047"/>
<path d="M109.948 114.6H114.292L115.252 116.04V117.984L114.292 118.956H110.908V123H109.948V114.6ZM110.92 115.464V118.668L111.892 118.104H113.92L114.292 117.72V116.172L113.824 115.464H110.92ZM117.083 116.628H117.611L118.751 117.312L119.411 116.628H121.883L122.507 117.54L121.787 118.032L121.427 117.492H119.783L119.255 118.056V122.136H120.947V123H117.083V122.136H118.295V118.176L117.827 117.492H117.083V116.628ZM125.311 116.628H128.707L129.667 118.068V122.004L128.707 123H125.323L124.351 121.56V117.624L125.311 116.628ZM125.299 121.44L125.779 122.136H128.323L128.683 121.752V118.176L128.227 117.492H125.671L125.299 117.888V121.44ZM133.274 122.292L132.59 122.952V123.912L133.07 124.632H134.858L135.866 123.612V122.652L135.638 122.292H133.274ZM132.59 117.804V119.652H134.894L135.866 119.052V117.9L135.41 117.24H133.106L132.59 117.804ZM134.918 120.54H133.07L132.626 120.996L132.878 121.404H136.106L136.838 122.544V123.816L135.218 125.508H132.626L131.618 124.008V122.748L132.302 122.064L131.522 120.9L132.146 120.276L131.618 119.952V117.54L132.746 116.364H134.906L135.866 116.952V116.364H136.838V119.364L134.918 120.54ZM138.669 116.628H139.197L140.337 117.312L140.997 116.628H143.469L144.093 117.54L143.373 118.032L143.013 117.492H141.369L140.841 118.056V122.136H142.533V123H138.669V122.136H139.881V118.176L139.413 117.492H138.669V116.628ZM146.813 116.364H150.581L151.337 117.48V123H150.329V122.388L149.321 123H146.813L145.805 121.5V121.02L147.677 119.076H150.329V117.252H146.813V116.364ZM146.813 121.38L147.281 122.088H150.329V119.988H148.073L146.813 121.284V121.38ZM152.88 116.628H153.84V117.204L154.8 116.628H155.304L155.856 117.456L157.236 116.628H157.704L158.676 118.056V123H157.704V118.176L157.248 117.492H156.636L156.276 117.888V119.676H155.304V118.176L154.848 117.492H154.212L153.84 117.888V123H152.88V116.628ZM160.075 116.628H161.035V117.204L161.995 116.628H162.499L163.051 117.456L164.431 116.628H164.899L165.871 118.056V123H164.899V118.176L164.443 117.492H163.831L163.471 117.888V119.676H162.499V118.176L162.043 117.492H161.407L161.035 117.888V123H160.075V116.628ZM168.459 116.628H171.819L172.815 118.056L170.835 120.096H168.459V121.44L168.927 122.136H171.471L172.143 121.476L172.671 122.136L171.831 123H168.471L167.499 121.56V117.624L168.459 116.628ZM168.459 117.876V119.232H170.475L171.687 117.96L171.375 117.492H168.843L168.459 117.876ZM174.646 116.628H175.174L176.314 117.312L176.974 116.628H179.446L180.07 117.54L179.35 118.032L178.99 117.492H177.346L176.818 118.056V122.136H178.51V123H174.646V122.136H175.858V118.176L175.39 117.492H174.646V116.628ZM193.44 114.6H194.412V123H193.44V119.796L190.524 115.464H190.056V123H189.096V114.6H190.98L193.44 118.236V114.6ZM200.624 116.616H201.596V123.576L199.652 125.604H196.292V124.728H199.256L200.624 123.324V123H197.492L196.292 121.224V116.616H197.252V121.104L197.96 122.124H200.624V116.616ZM204.375 116.364H208.143L208.899 117.48V123H207.891V122.388L206.883 123H204.375L203.367 121.5V121.02L205.239 119.076H207.891V117.252H204.375V116.364ZM204.375 121.38L204.843 122.088H207.891V119.988H205.635L204.375 121.284V121.38ZM210.622 116.628H211.15L212.29 117.312L212.95 116.628H215.422L216.046 117.54L215.326 118.032L214.966 117.492H213.322L212.794 118.056V122.136H214.486V123H210.622V122.136H211.834V118.176L211.366 117.492H210.622V116.628ZM218.358 116.4H220.05L221.01 117.84V122.136H223.182V123H217.878V122.136H220.05V117.96L219.594 117.276H218.358V116.4ZM219.93 114.828H221.13V113.628H219.93V114.828ZM232.268 114.6H233.228V114.936L234.488 116.796L236.612 114.6H237.584V123H236.612V115.86L235.424 117.108V118.2H234.38V118.176L233.228 116.472V123H232.268V114.6ZM240.352 116.364H244.12L244.876 117.48V123H243.868V122.388L242.86 123H240.352L239.344 121.5V121.02L241.216 119.076H243.868V117.252H240.352V116.364ZM240.352 121.38L240.82 122.088H243.868V119.988H241.612L240.352 121.284V121.38ZM246.659 114.024H247.619V118.872L250.151 116.256H251.351L249.539 118.116L251.975 121.716V123H251.003V121.824L248.915 118.764L247.619 120.096V123H246.659V114.024ZM254.742 116.364H258.51L259.266 117.48V123H258.258V122.388L257.25 123H254.742L253.734 121.5V121.02L255.606 119.076H258.258V117.252H254.742V116.364ZM254.742 121.38L255.21 122.088H258.258V119.988H256.002L254.742 121.284V121.38ZM261.05 116.628H262.01V117.204L262.982 116.628H265.394L266.366 118.044V123H265.394V118.164L264.938 117.492H262.382L262.01 117.876V123H261.05V116.628Z" fill="white"/>
<g clip-path="url(#clip0_103_26)">
<path d="M293.456 110C293.251 110.366 293.067 110.745 292.899 111.132C291.308 110.892 289.687 110.892 288.091 111.132C287.928 110.745 287.74 110.366 287.534 110C286.039 110.257 284.582 110.707 283.2 111.343C280.461 115.422 279.72 119.395 280.088 123.314C281.692 124.506 283.489 125.415 285.403 125.996C285.834 125.415 286.215 124.796 286.542 124.152C285.922 123.921 285.323 123.63 284.749 123.293C284.9 123.184 285.047 123.07 285.189 122.961C288.552 124.552 292.447 124.552 295.814 122.961C295.956 123.079 296.103 123.192 296.254 123.293C295.68 123.634 295.081 123.921 294.457 124.156C294.784 124.8 295.165 125.419 295.596 126C297.51 125.419 299.307 124.514 300.911 123.323C301.346 118.777 300.165 114.837 297.791 111.347C296.413 110.711 294.956 110.261 293.46 110.008L293.456 110ZM287.011 120.902C285.976 120.902 285.118 119.959 285.118 118.793C285.118 117.627 285.943 116.68 287.007 116.68C288.07 116.68 288.916 117.632 288.9 118.793C288.883 119.955 288.066 120.902 287.011 120.902ZM293.988 120.902C292.949 120.902 292.099 119.959 292.099 118.793C292.099 117.627 292.924 116.68 293.988 116.68C295.052 116.68 295.894 117.632 295.877 118.793C295.86 119.955 295.043 120.902 293.988 120.902Z" fill="white"/>
</g>
<defs>
<clipPath id="clip0_103_26">
<rect width="21" height="16" fill="white" transform="translate(280 110)"/>
</clipPath>
</defs>
</svg>
